<svg width="295" height="223" viewBox="0 0 295 223" fill="none" xmlns="http://www.w3.org/2000/svg">
<path d="M253 120.95C253 155.292 232.903 185.673 202.096 204.167C182.343 216.026 158.185 223 132.1 223C97.3503 223 70.8428 209.843 50.9033 189.687C32.5244 171.115 19.7273 146.594 11.2003 120.95C-26.866 6.45422 36.7242 -24.7818 132.1 18.9003C192.826 46.716 253 64.5912 253 120.95Z" fill="#9575CD"/>
<path d="M202 61V204.197C182.273 216.038 158.145 223 132.093 223C97.3879 223 70.9141 209.864 51 189.741V61L202 61Z" fill="#F2F2F2"/>
<path d="M65.4968 131.173C73.3727 128.685 81.5443 127.238 89.8008 126.87C93.938 126.695 98.0826 126.856 102.193 127.352C106.264 127.886 110.286 128.742 114.221 129.909C118.108 131.027 121.942 132.318 125.817 133.479C129.753 134.673 133.754 135.643 137.801 136.383C141.827 137.107 145.893 137.588 149.978 137.825C154.022 138.058 158.106 138.104 162.139 137.676C165.907 137.316 169.597 136.387 173.082 134.921C176.332 133.512 179.336 131.599 181.981 129.252C182.641 128.667 183.276 128.056 183.885 127.419C184.245 127.046 183.674 126.477 183.314 126.851C178.158 132.204 171.382 135.523 164.032 136.631C160.027 137.235 155.947 137.27 151.908 137.115C147.778 136.956 143.662 136.543 139.584 135.878C135.555 135.214 131.569 134.313 127.648 133.18C123.797 132.071 119.997 130.794 116.159 129.641C112.287 128.434 108.335 127.499 104.33 126.842C100.315 126.235 96.2559 125.955 92.1943 126.006C84.0784 126.135 76.0145 127.321 68.2092 129.533C67.2289 129.807 66.2531 130.095 65.2818 130.399C64.7868 130.553 64.9981 131.329 65.4967 131.173H65.4968Z" fill="#3F3D56"/>
<path d="M65.4968 151.173C73.3727 148.685 81.5443 147.238 89.8008 146.87C93.938 146.695 98.0826 146.856 102.193 147.352C106.264 147.886 110.286 148.742 114.221 149.909C118.108 151.027 121.942 152.318 125.817 153.479C129.753 154.673 133.754 155.643 137.801 156.383C141.827 157.107 145.893 157.588 149.978 157.825C154.022 158.058 158.106 158.104 162.139 157.676C165.907 157.316 169.597 156.387 173.082 154.921C176.332 153.512 179.336 151.599 181.981 149.252C182.641 148.667 183.276 148.056 183.885 147.419C184.245 147.046 183.674 146.477 183.314 146.851C178.158 152.204 171.382 155.523 164.032 156.631C160.027 157.235 155.947 157.27 151.908 157.115C147.778 156.956 143.662 156.543 139.584 155.878C135.555 155.214 131.569 154.313 127.648 153.18C123.797 152.071 119.997 150.794 116.159 149.641C112.287 148.434 108.335 147.499 104.33 146.842C100.315 146.235 96.2559 145.955 92.1943 146.006C84.0784 146.135 76.0145 147.321 68.2092 149.533C67.2289 149.807 66.2531 150.095 65.2818 150.399C64.7868 150.553 64.9981 151.329 65.4967 151.173H65.4968Z" fill="#3F3D56"/>
<path d="M65.4968 111.173C73.3727 108.685 81.5443 107.238 89.8008 106.87C93.938 106.695 98.0826 106.856 102.193 107.352C106.264 107.886 110.286 108.742 114.221 109.909C118.108 111.027 121.942 112.318 125.817 113.479C129.753 114.673 133.754 115.643 137.801 116.383C141.827 117.107 145.893 117.588 149.978 117.825C154.022 118.058 158.106 118.104 162.139 117.676C165.907 117.316 169.597 116.387 173.082 114.921C176.332 113.512 179.336 111.599 181.981 109.252C182.641 108.667 183.276 108.056 183.885 107.419C184.245 107.046 183.674 106.477 183.314 106.851C178.158 112.204 171.382 115.523 164.032 116.631C160.027 117.235 155.947 117.27 151.908 117.115C147.778 116.956 143.662 116.543 139.584 115.878C135.555 115.214 131.569 114.313 127.648 113.18C123.797 112.071 119.997 110.794 116.159 109.641C112.287 108.434 108.335 107.499 104.33 106.842C100.315 106.235 96.2559 105.955 92.1943 106.006C84.0784 106.135 76.0145 107.321 68.2092 109.533C67.2289 109.807 66.2531 110.095 65.2818 110.399C64.7868 110.553 64.9981 111.329 65.4967 111.173H65.4968Z" fill="#3F3D56"/>
<path d="M63.6287 76.3304C65.6159 75.5175 67.8924 75.6592 69.9547 76.1306C72.1785 76.6389 74.2726 77.5228 76.4616 78.134C80.38 79.2121 84.5422 79.285 88.502 78.3449C90.7313 77.8198 92.8586 76.9778 94.8077 75.849C95.2542 75.5899 94.8424 74.9334 94.3932 75.1941C90.9189 77.1975 86.9028 78.2548 82.8068 78.2444C80.7525 78.2415 78.7095 77.9637 76.7415 77.4197C74.5684 76.818 72.4911 75.9444 70.2897 75.4263C67.9573 74.8773 65.4561 74.7583 63.2141 75.6755C62.7318 75.8728 63.1492 76.5265 63.6287 76.3304V76.3304Z" fill="#3F3D56"/>
<circle cx="124.5" cy="188.5" r="12.5" fill="#3F3D56"/>
<circle cx="57.5" cy="28.5" r="6.5" fill="#F2F2F2"/>
<circle cx="116.5" cy="47.5" r="4.5" fill="#F2F2F2"/>
<circle cx="42.5" cy="92.5" r="4.5" fill="#F2F2F2"/>
<rect x="23" y="58" width="1" height="91" fill="#3F3D56"/>
<ellipse cx="23.5" cy="118.5" rx="9.5" ry="22.5" fill="#3F3D56"/>
<ellipse cx="23.5" cy="66.5" rx="9.5" ry="22.5" fill="#3F3D56"/>
<path d="M24.0238 48L23.5217 47.8553C23.5534 47.7535 26.6348 37.6017 21.5751 31.0664C18.7174 27.3755 13.8137 25.5039 7 25.5039V25C13.9895 25 19.0352 26.9405 21.9971 30.7675C27.2133 37.5076 24.0563 47.8959 24.0238 48Z" fill="#3F3D56"/>
<circle cx="7" cy="26" r="6" fill="#3F3D56"/>
<path d="M208.752 169.151L204 213H236.787L238.213 209.664L240.113 213H271C271 213 268.624 167.722 264.348 166.292C260.071 164.862 208.752 169.151 208.752 169.151Z" fill="#2F2E41"/>
<circle cx="237" cy="57" r="17" fill="#FFB8B8"/>
<path d="M227.061 67.6994C227.061 67.6994 228.495 82.4971 227.061 83.422C225.627 84.3468 250 83.8844 250 83.8844C250 83.8844 246.655 70.474 250 64L227.061 67.6994Z" fill="#FFB8B8"/>
<path d="M234.991 79.8994C234.991 79.8994 247.25 81.8043 248.266 78L254.524 86.5537L255 172.109C255 172.109 204.025 178.288 202.12 168.307C200.214 158.325 221.652 79.4241 221.652 79.4241L227.049 79.0755C227.049 79.0755 234.039 79.8994 234.991 79.8994Z" fill="#D0CDE1"/>
<path d="M227.653 75L219.52 77.8059L196.293 83.469L197.241 140.1C197.241 140.1 177.333 196.73 186.339 200.978C195.345 205.225 208.143 195.314 211.936 188.236C215.728 181.157 229 82.9971 229 81.1094C229 79.2217 227.653 75 227.653 75Z" fill="#3F3D56"/>
<path d="M248.312 75L251.49 77.835L274 88.325L262.745 146.02C262.745 146.02 277.752 198.47 272.124 201.331C266.497 204.192 258.056 212.298 256.18 207.529C254.304 202.761 243.258 80.2709 248.312 75Z" fill="#3F3D56"/>
<path d="M261.648 151.223C261.648 151.223 240.477 142.376 240.007 150.292C239.536 158.208 264 163.795 264 161.467C264 159.139 261.648 151.223 261.648 151.223Z" fill="#FFB8B8"/>
<path d="M209.643 148C209.643 148 234.318 166.553 224.827 171.31C215.337 176.067 203 154.66 203 154.66L209.643 148Z" fill="#FFB8B8"/>
<path d="M243.553 32.6205C243.711 32.2881 244.055 32.0845 244.423 32.1058C236.914 31.6584 229.005 32.5302 222.722 36.6525C220.963 37.807 219.32 39.2188 217.317 39.8694L218.943 41.1395L217 41.7295L219.859 43.5701C219.271 44.2356 218.371 44.5362 217.499 44.3577C218.741 44.7193 219.656 45.8207 220.121 47.0242C220.585 48.2277 220.669 49.5384 220.747 50.8255C221.228 48.9684 223.262 47.8752 225.184 47.7641C227.106 47.6531 228.98 48.2847 230.85 48.7388C234.924 49.725 239.155 49.8871 243.293 49.2156C241.888 52.0245 243.073 55.3749 244.265 58.2795L246.647 64.0793C247.969 64.2118 248.903 62.902 249.9 62.0259C250.807 61.2274 247.193 68.2504 247.753 67.9931C248.48 67.6588 256.151 59.221 256.511 58.5082C258.15 55.2559 259.133 51.6283 258.985 47.9921C258.837 44.3559 257.502 40.7179 254.986 38.0794C253.278 36.2881 250.915 35.9744 249.173 34.4856C248.488 33.8997 248.485 33.4419 247.543 33.1003C247.231 32.9868 243.605 32.5061 243.553 32.6205Z" fill="#2F2E41"/>
<path d="M200.23 85.4211L196.906 84L170.315 127.579C170.315 127.579 165.567 138.947 174.114 144.158C182.661 149.368 202.604 165 202.604 165L214 147.474C214 147.474 190.733 136.579 192.158 132.316C193.582 128.053 201.179 116.684 201.179 116.684L200.23 85.4211Z" fill="#3F3D56"/>
<path d="M268.433 88L274.598 88.9432C274.598 88.9432 300.207 138.932 294.042 148.364C287.877 157.795 262.742 171 262.742 171C262.742 171 262.268 155.438 258 149.778L272.701 144.119L264.639 112.994L268.433 88Z" fill="#3F3D56"/>
</svg>
