<svg width="24" height="24" viewBox="0 0 24 24" fill="none" xmlns="http://www.w3.org/2000/svg">
<path d="M20 12C20 11.4974 19.9528 10.9943 19.8595 10.5059C19.8173 10.2848 19.6237 10.125 19.399 10.125H12.0312C11.7722 10.125 11.5625 10.3347 11.5625 10.5938V13.4062C11.5625 13.6653 11.7722 13.875 12.0312 13.875H15.8115C15.5759 14.3518 15.2513 14.7655 14.8702 15.1136L17.5196 17.763C19.044 16.3106 20 14.2669 20 12Z" fill="white"/>
<path d="M12 7.75C12.9197 7.75 13.7945 8.04206 14.5296 8.59503C14.7155 8.73466 14.9778 8.71772 15.1426 8.55153L17.143 6.55109C17.2359 6.45816 17.2858 6.33044 17.2799 6.19906C17.2739 6.06769 17.2135 5.945 17.1128 5.86031C15.6814 4.66056 13.8654 4 12 4C9.25475 4 6.82947 5.39544 5.39575 7.51413L8.14725 10.2656C8.80369 8.787 10.2806 7.75 12 7.75Z" fill="white"/>
<path d="M12 20C13.7895 20 15.4373 19.4 16.7688 18.4004L14.0698 15.7013C13.4528 16.0487 12.7477 16.25 12 16.25C10.2806 16.25 8.80369 15.213 8.14725 13.7344L5.39575 16.4859C6.82947 18.6046 9.25475 20 12 20Z" fill="white"/>
<path d="M7.81825 12.6751C7.78234 12.4539 7.75 12.2311 7.75 12C7.75 11.7688 7.78234 11.546 7.81825 11.3248L4.87687 8.38342C4.32037 9.4703 4 10.6973 4 12C4 13.3026 4.32038 14.5296 4.87691 15.6165L7.81825 12.6751Z" fill="white"/>
</svg>
