<svg width="97" height="128" viewBox="0 0 97 128" fill="none" xmlns="http://www.w3.org/2000/svg">
<path d="M21.6656 124C22.389 124 31.1343 123.989 31.8519 123.966C65.8161 122.886 93 96.4514 93 64C93 30.8629 64.6552 4 29.6902 4C17.3356 4 9.25427 4 0 4" stroke="#A230AE" stroke-width="8"/>
<path d="M43.9422 99C47.3909 99 51.5765 96.911 56.4991 92.7329C63.8831 86.4658 70 75.1525 70 63.9186C70 50.9033 63.2722 38.1057 52.2951 31.7989C46.7265 28.5996 40.6282 27 34 27" stroke="#4527A0" stroke-width="8"/>
<path d="M45.0504 70C46.0507 69.0499 46.6796 67.3009 46.9371 64.7529C47.3234 60.9309 45.9288 56.0184 42.7823 52.8137C39.1368 49.1007 30.4428 46.7883 22 52.1993" stroke="#531B89" stroke-width="8"/>
</svg>
